HIERARCHY
ROOT Hips
{
    OFFSET 0.000000 0.000000 0.000000
    CHANNELS 6 Xposition Yposition Zposition Zrotation Xrotation Yrotation
    JOINT Spine
    {
        OFFSET -0.000000 7.795402 0.000000
        CHANNELS 3 Zrotation Xrotation Yrotation
        JOINT Spine1
        {
            OFFSET -0.000000 20.648252 0.000000
            CHANNELS 3 Zrotation Xrotation Yrotation
            JOINT Neck
            {
                OFFSET -0.000000 20.563454 1.869405
                CHANNELS 3 Zrotation Xrotation Yrotation
                JOINT Head
                {
                    OFFSET -0.000000 13.309221 -1.901317
                    CHANNELS 3 Zrotation Xrotation Yrotation
                    End Site
                    {
                        OFFSET -0.000000 23.766466 0.000000
                    }
                }
            }
            JOINT LeftShoulder
            {
                OFFSET 3.798743 19.114376 -0.113875
                CHANNELS 3 Zrotation Xrotation Yrotation
                JOINT LeftArm
                {
                    OFFSET 9.772051 0.000000 0.000000
                    CHANNELS 3 Zrotation Xrotation Yrotation
                    JOINT LeftForeArm
                    {
                        OFFSET 36.651028 0.000000 0.000000
                        CHANNELS 3 Zrotation Xrotation Yrotation
                        JOINT LeftHand
                        {
                            OFFSET 25.694054 0.000000 0.000000
                            CHANNELS 3 Zrotation Xrotation Yrotation
                            End Site
                            {
                                OFFSET 14.259881 0.000000 0.000000
                            }
                        }
                    }
                }
            }
            JOINT RightShoulder
            {
                OFFSET -3.780769 19.114376 -0.113875
                CHANNELS 3 Zrotation Xrotation Yrotation
                JOINT RightArm
                {
                    OFFSET -9.772051 0.000000 0.000000
                    CHANNELS 3 Zrotation Xrotation Yrotation
                    JOINT RightForeArm
                    {
                        OFFSET -36.651028 0.000000 0.000000
                        CHANNELS 3 Zrotation Xrotation Yrotation
                        JOINT RightHand
                        {
                            OFFSET -25.694054 0.000000 0.000000
                            CHANNELS 3 Zrotation Xrotation Yrotation
                            End Site
                            {
                                OFFSET -14.259881 0.000000 0.000000
                            }
                        }
                    }
                }
            }
        }
    }
    JOINT LeftUpLeg
    {
        OFFSET 9.506587 0.000000 0.000000
        CHANNELS 3 Zrotation Xrotation Yrotation
        JOINT LeftLeg
        {
            OFFSET -0.000000 -42.556026 0.000000
            CHANNELS 3 Zrotation Xrotation Yrotation
            JOINT LeftFoot
            {
                OFFSET -0.000000 -42.739758 0.000000
                CHANNELS 3 Zrotation Xrotation Yrotation
                JOINT LeftToeBase
                {
                    OFFSET -0.000000 -6.179281 14.259881
                    CHANNELS 3 Zrotation Xrotation Yrotation
                    End Site
                    {
                        OFFSET -0.000000 0.000000 3.802635
                    }
                }
            }
        }
    }
    JOINT RightUpLeg
    {
        OFFSET -9.506587 0.000000 0.000000
        CHANNELS 3 Zrotation Xrotation Yrotation
        JOINT RightLeg
        {
            OFFSET -0.000000 -42.556026 0.000000
            CHANNELS 3 Zrotation Xrotation Yrotation
            JOINT RightFoot
            {
                OFFSET -0.000000 -42.739758 0.000000
                CHANNELS 3 Zrotation Xrotation Yrotation
                JOINT RightToeBase
                {
                    OFFSET -0.000000 -6.179281 14.259881
                    CHANNELS 3 Zrotation Xrotation Yrotation
                    End Site
                    {
                        OFFSET -0.000000 0.000000 3.802635
                    }
                }
            }
        }
    }
}
MOTION
Frames:    12
Frame Time:    0.008333
6.865291    78.347977    11.441031    -0.198113    7.070643    58.783844    3.012024    10.476524    -4.655049    4.572152    -8.260494    -4.048502    31.609589    46.775562    0.383591    -52.996422    -7.153638    -0.667979    31.186150    -5.378051    -1.487379    -2.581669    -17.796827    -14.609161    30.879261    -10.805789    -16.773556    61.365974    14.327971    33.493855    5.760225    14.414808    21.569527    36.026051    53.038666    10.550020    -21.407946    -16.141159    72.906586    -21.705772    1.841592    -10.892262    27.234625    -32.541832    -0.907454    -15.851736    26.603477    13.304862    -17.103802    0.364965    16.957264    0.000000    0.000000    0.000000    -32.336304    -28.533066    -6.036182    27.185524    60.167934    -25.828316    5.581152    -31.332121    -13.735723    0.000000    0.000000    0.000000    
7.172906    78.048767    10.975768    -0.512334    7.285570    57.433601    2.176295    10.880475    -4.508160    5.606807    -8.544421    -3.881690    28.917145    47.599182    1.793360    -52.189301    -8.427323    -0.208611    31.354004    -6.343747    0.286625    -2.396374    -18.984575    -13.425785    26.052368    -12.919700    -14.196915    62.122139    12.163403    34.934177    4.737448    14.401659    21.953800    36.172340    51.700573    10.645445    -21.631884    -16.204857    73.429771    -21.534782    2.123399    -11.061309    28.335052    -33.165173    0.923253    -17.030420    28.485184    12.982123    -15.677104    -1.093042    17.301332    0.000000    0.000000    0.000000    -32.776577    -30.022381    -6.328370    28.081232    60.758999    -26.790991    4.449111    -30.838081    -14.841535    0.000000    0.000000    0.000000    
7.528704    77.794144    10.494825    -0.753029    7.514275    56.015682    1.259077    11.183945    -4.148967    6.841579    -8.521775    -3.515365    25.830315    48.106407    3.308586    -51.165123    -9.682421    0.159314    31.271267    -7.545077    2.295338    -2.325859    -20.293413    -12.607307    21.574844    -14.789245    -12.033440    62.601185    11.108748    37.270638    3.399429    14.386537    22.163614    36.361073    49.728504    10.904341    -21.127724    -16.091888    74.453850    -22.553751    2.403139    -11.807194    29.428938    -33.568104    2.602302    -18.344139    30.148090    12.944209    -14.548854    -2.525886    17.785089    0.000000    0.000000    0.000000    -33.249966    -31.416054    -6.811257    28.585882    61.303253    -27.341652    3.395465    -30.276432    -15.615966    0.000000    0.000000    0.000000    
7.933146    77.584740    10.008411    -0.857031    7.752025    54.581276    0.398479    11.338301    -3.618553    7.823855    -8.065451    -3.026559    22.565435    48.446815    4.802307    -49.871632    -11.151061    0.369546    31.091166    -8.669757    4.549231    -2.664325    -21.906143    -12.431588    18.576984    -16.534294    -10.104940    61.954609    11.716430    42.028748    2.009451    14.099361    22.111284    37.167305    47.908855    10.791026    -21.561586    -16.337833    74.889908    -21.459290    2.545925    -11.989385    30.243849    -33.804626    4.152410    -19.387384    31.759995    13.458807    -13.617343    -3.742460    17.793594    0.000000    0.000000    0.000000    -33.778381    -32.605438    -7.453374    28.624542    61.771156    -27.420872    2.360999    -29.721754    -16.289846    0.000000    0.000000    0.000000    
8.367094    77.427483    9.546326    -0.803171    7.996187    53.219296    -0.242079    11.350699    -2.989210    8.180750    -7.319357    -2.489141    19.815825    48.735245    5.966697    -48.577160    -12.711625    0.382205    30.848309    -9.698066    6.672136    -3.415056    -23.283569    -12.803456    17.728436    -19.081657    -8.306641    59.542995    11.748390    48.185379    1.037394    13.927336    21.850531    37.853951    45.914471    10.763572    -21.349340    -16.553761    75.525764    -21.672087    2.518777    -12.768646    30.719418    -33.745182    5.317260    -20.273243    32.960312    13.940068    -12.653006    -4.915516    17.792645    0.000000    0.000000    0.000000    -34.336437    -33.579823    -8.241069    28.102039    62.243519    -27.176474    1.647132    -29.141790    -16.605742    0.000000    0.000000    0.000000    
8.832643    77.324364    9.103160    -0.619322    8.213748    51.887440    -0.578344    11.399986    -2.368137    8.007716    -6.776019    -1.951056    17.400133    49.385128    6.852663    -47.322735    -14.414640    0.251831    30.558378    -10.712695    8.425345    -4.552444    -23.628418    -13.228470    18.835480    -23.255846    -6.983572    55.747921    9.560312    54.975128    0.367666    14.017905    21.765154    38.695503    43.947048    10.443407    -20.986599    -16.790003    75.955811    -22.496780    2.312795    -13.324911    30.856419    -33.465244    6.403040    -20.773970    34.025928    13.903681    -11.628164    -6.192067    18.050224    0.000000    0.000000    0.000000    -34.789455    -34.375568    -8.933734    26.730122    62.695168    -26.210600    1.351767    -28.555811    -16.374458    0.000000    0.000000    0.000000    
9.328635    77.248024    8.692000    -0.333540    8.434247    50.591892    -0.694590    11.645498    -1.798280    7.537904    -6.942656    -1.411195    14.742992    51.033649    7.601532    -45.931313    -16.640495    -0.088234    29.857210    -11.210190    9.394016    -5.670443    -22.428192    -13.313983    22.358051    -31.896116    -5.818212    53.331348    0.428943    58.278164    -0.082886    14.529907    22.088596    39.901024    41.393723    9.636937    -20.464180    -16.539440    76.336830    -22.088882    2.278492    -13.680715    30.720968    -33.027012    6.849115    -21.329136    34.724216    14.289275    -10.558905    -7.437693    18.341312    0.000000    0.000000    0.000000    -35.354767    -35.021545    -9.280469    25.981836    62.945583    -25.358591    1.156652    -27.985039    -16.338913    0.000000    0.000000    0.000000    
9.814793    77.220306    8.285263    -0.013992    8.632906    49.395058    -0.855988    12.005861    -0.971039    6.916470    -7.361487    -0.615555    13.506635    52.464668    7.600593    -44.943420    -18.301662    -0.648998    28.737328    -11.680048    9.735514    -6.681589    -23.063406    -13.715217    25.415899    -41.227108    -5.505742    52.130447    -13.989547    55.179966    0.085361    14.860151    21.659147    40.952438    39.621605    8.549589    -20.007732    -16.789595    76.700958    -21.685673    1.802173    -14.226375    30.418018    -32.649769    7.184350    -21.715311    35.425076    14.774314    -9.619752    -8.475753    18.531612    0.000000    0.000000    0.000000    -35.861698    -35.545856    -9.305740    25.304127    62.973808    -24.744604    1.292445    -27.378115    -15.993615    0.000000    0.000000    0.000000    
10.307620    77.208481    7.935212    0.236918    8.734670    48.284546    -0.470635    12.359207    -0.353379    5.638228    -7.998601    -0.009821    12.113509    54.014030    7.856459    -43.752148    -19.996969    -0.937020    27.450359    -11.332714    10.167395    -7.510332    -23.883801    -14.638854    27.351809    -47.752316    -5.396897    48.934387    -30.464828    43.734547    0.482947    15.382168    21.357077    41.638767    37.953384    8.035672    -18.572372    -16.481659    77.093315    -22.513239    1.254860    -14.757132    30.252308    -32.242565    7.308311    -22.310680    35.957287    15.368704    -8.658469    -9.471849    18.855944    0.000000    0.000000    0.000000    -36.140751    -35.985218    -9.013303    24.758348    62.912098    -24.042683    1.595389    -26.874935    -15.859972    0.000000    0.000000    0.000000    
10.799168    77.209656    7.585567    0.353448    8.797479    47.388565    0.050402    12.434160    0.299857    4.310993    -8.355755    0.620641    11.359306    55.292538    7.785666    -42.747356    -21.396931    -1.304853    26.157623    -11.080216    10.022456    -7.968749    -24.408213    -15.322076    25.981386    -47.696800    -9.673788    51.676651    -34.072594    31.766901    0.958736    15.508265    20.776020    42.540741    36.857601    7.246231    -17.196844    -16.584736    77.545685    -23.267788    0.317921    -15.214625    30.160694    -32.042038    7.191436    -23.163265    36.411301    16.318710    -7.588503    -10.372479    19.263506    0.000000    0.000000    0.000000    -36.338089    -36.259602    -8.648584    24.185858    62.641380    -23.447153    1.881121    -26.407209    -15.489741    0.000000    0.000000    0.000000    
11.269240    77.207291    7.280599    0.267549    8.766013    46.736576    1.113646    12.232569    0.745817    2.201755    -8.411283    1.027106    11.274461    56.151455    7.657332    -41.791012    -22.522968    -1.409341    25.609211    -10.826108    9.901256    -8.256010    -24.636286    -16.010050    25.558945    -43.080925    -15.082314    62.846802    -26.127085    27.565371    2.051451    15.420361    20.293901    43.047989    35.866497    6.543222    -15.333570    -16.331450    78.055794    -23.633753    -0.783638    -15.290367    30.298235    -32.039474    7.183154    -23.947111    36.988735    16.737926    -6.858215    -11.290575    19.847385    0.000000    0.000000    0.000000    -36.303631    -36.443573    -8.206286    23.656811    62.303886    -22.971218    2.595985    -26.037088    -15.081941    0.000000    0.000000    0.000000    
11.748503    77.227280    6.980991    0.159667    8.759459    46.359081    1.959745    11.939739    1.086851    0.697208    -8.535812    1.343880    10.842676    57.012062    7.644421    -40.811100    -23.485050    -1.467735    24.788965    -10.293600    9.315224    -7.853298    -23.636604    -16.107410    28.506601    -36.396877    -17.393356    73.094299    -14.492194    26.268377    2.663714    15.182891    19.881844    43.627514    35.679966    5.872497    -13.696818    -16.523756    78.417030    -24.327341    -2.108288    -15.599870    30.225773    -32.228745    6.982554    -24.557711    37.579292    17.231262    -5.777018    -11.995050    20.291235    0.000000    0.000000    0.000000    -36.368244    -36.421436    -7.921511    23.062317    61.904495    -22.297785    3.310577    -25.706406    -14.833698    0.000000    0.000000    0.000000    
